<?xml version="1.0" encoding="utf-8"?>
<!-- Generator: Adobe Illustrator 17.1.0, SVG Export Plug-In . SVG Version: 6.00 Build 0)  -->
<!DOCTYPE svg PUBLIC "-//W3C//DTD SVG 1.1//EN" "http://www.w3.org/Graphics/SVG/1.1/DTD/svg11.dtd">
<svg version="1.1" id="Слой_1" xmlns="http://www.w3.org/2000/svg" xmlns:xlink="http://www.w3.org/1999/xlink" x="0px" y="0px"
	 viewBox="0 0 18.6 18.7" enable-background="new 0 0 18.6 18.7" xml:space="preserve">
<g>
	<path fill="#FFFFFF" d="M18.6,17.2c0,0.4-0.1,0.7-0.4,1c-0.3,0.3-0.6,0.4-1,0.4c-0.4,0-0.7-0.1-1-0.4l-3.8-3.8
		c-1.3,0.9-2.8,1.4-4.5,1.4c-1.1,0-2.1-0.2-3.1-0.6c-1-0.4-1.8-1-2.5-1.7c-0.7-0.7-1.3-1.5-1.7-2.5C0.2,10,0,9,0,7.9
		c0-1.1,0.2-2.1,0.6-3c0.4-0.9,1-1.8,1.7-2.5C3,1.6,3.9,1.1,4.8,0.7s2-0.6,3.1-0.6c1.1,0,2.1,0.2,3,0.6c0.9,0.4,1.8,1,2.5,1.7
		c0.7,0.7,1.3,1.5,1.7,2.5c0.4,1,0.6,2,0.6,3c0,1.6-0.5,3.1-1.4,4.5l3.8,3.8C18.5,16.5,18.6,16.8,18.6,17.2z M12.9,7.9
		c0-1.4-0.5-2.5-1.5-3.5c-1-1-2.2-1.5-3.5-1.5c-1.4,0-2.5,0.5-3.5,1.5S2.9,6.6,2.9,7.9s0.5,2.5,1.5,3.5c0.9,1,2.1,1.5,3.5,1.5
		s2.6-0.5,3.5-1.5S12.8,9.3,12.9,7.9z"/>
</g>
</svg>
