<?xml version="1.0" encoding="utf-8"?>
<!-- Generator: Adobe Illustrator 17.1.0, SVG Export Plug-In . SVG Version: 6.00 Build 0)  -->
<!DOCTYPE svg PUBLIC "-//W3C//DTD SVG 1.1//EN" "http://www.w3.org/Graphics/SVG/1.1/DTD/svg11.dtd">
<svg version="1.1" id="Слой_1" xmlns="http://www.w3.org/2000/svg" xmlns:xlink="http://www.w3.org/1999/xlink" x="0px" y="0px"
	 viewBox="0 0 12 10" enable-background="new 0 0 12 10" xml:space="preserve">
<g>
	<path fill="#FFFFFF" d="M9.3,5c0,0.1-0.1,0.2-0.2,0.4L4.9,9.6C4.8,9.7,4.6,9.7,4.5,9.7c-0.1,0-0.3,0-0.4-0.1C4.1,9.5,4,9.4,4,9.3V7
		H0.5C0.4,7,0.2,7,0.2,6.8S0,6.6,0,6.5v-3c0-0.1,0.1-0.3,0.2-0.3C0.3,3.1,0.4,3,0.5,3H4V0.7c0-0.1,0-0.2,0.1-0.3s0.2-0.1,0.4-0.1
		c0.1,0,0.3,0.1,0.4,0.1l4.2,4.3C9.2,4.7,9.3,4.9,9.3,5z M12,2.3v5.5c0,0.6-0.2,1.2-0.7,1.6c-0.4,0.4-1,0.7-1.6,0.7H7.3
		c-0.1,0-0.1,0-0.2-0.1C7,9.9,7,9.8,7,9.7l0-0.2c0-0.1,0-0.2,0-0.2l0-0.2C7,9.1,7,9.1,7.1,9c0,0,0.1-0.1,0.2,0h2.5
		c0.3,0,0.6-0.1,0.9-0.4S11,8.1,11,7.7V2.3c0-0.3-0.1-0.6-0.4-0.9C10.4,1.1,10.1,1,9.7,1H7.2C7.2,1,7.1,1,7.1,1s0,0-0.1,0
		c0,0-0.1,0-0.1-0.1c0,0,0-0.1,0-0.1l0-0.2c0-0.1,0-0.2,0-0.2l0-0.2C7,0.1,7,0.1,7.1,0c0,0,0.1-0.1,0.2,0h2.5c0.6,0,1.2,0.2,1.6,0.7
		C11.8,1.1,12,1.6,12,2.3z"/>
</g>
</svg>
