<?xml version="1.0" encoding="utf-8"?>
<!-- Generator: Adobe Illustrator 17.1.0, SVG Export Plug-In . SVG Version: 6.00 Build 0)  -->
<!DOCTYPE svg PUBLIC "-//W3C//DTD SVG 1.1//EN" "http://www.w3.org/Graphics/SVG/1.1/DTD/svg11.dtd">
<svg version="1.1" id="Слой_1" xmlns="http://www.w3.org/2000/svg" xmlns:xlink="http://www.w3.org/1999/xlink" x="0px" y="0px"
	 viewBox="0 0 369.3 78.3" enable-background="new 0 0 369.3 78.3" xml:space="preserve">
<g>
	<g>
		
			<linearGradient id="SVGID_1_" gradientUnits="userSpaceOnUse" x1="101.1431" y1="34.7497" x2="140.4561" y2="34.7497" gradientTransform="matrix(1.0169 -4.233117e-002 -4.233117e-002 1.0283 8.4128 -0.4151)">
			<stop  offset="0" style="stop-color:#EF9B8D"/>
			<stop  offset="0.2245" style="stop-color:#EF4628"/>
			<stop  offset="0.3675" style="stop-color:#CD3C22"/>
			<stop  offset="0.5561" style="stop-color:#A7311C"/>
			<stop  offset="0.7307" style="stop-color:#8C2917"/>
			<stop  offset="0.8841" style="stop-color:#7B2414"/>
			<stop  offset="1" style="stop-color:#752213"/>
		</linearGradient>
		<path fill="url(#SVGID_1_)" d="M141.7,16.6c8.7,7.6,10.5,19.9,3.9,27.5c-6.6,7.5-19,7.5-27.8-0.2s-10.5-19.9-3.9-27.5
			C120.6,8.8,133,8.9,141.7,16.6z"/>
		
			<ellipse transform="matrix(0.6583 -0.7528 0.7528 0.6583 23.3428 108.5117)" fill="#EF4628" cx="131.2" cy="28.5" rx="16.6" ry="21"/>
		
			<ellipse transform="matrix(0.6583 -0.7528 0.7528 0.6583 23.3428 108.5117)" fill="#FFFFFF" cx="131.2" cy="28.5" rx="11.6" ry="14.8"/>
		
			<ellipse transform="matrix(0.6583 -0.7528 0.7528 0.6583 23.3428 108.5117)" fill="#EF4628" cx="131.2" cy="28.5" rx="4.6" ry="5.9"/>
	</g>
	
		<ellipse transform="matrix(0.8002 -0.5998 0.5998 0.8002 9.4624 84.8895)" opacity="0.7" fill="#231F20" cx="132.1" cy="28.2" rx="0.4" ry="0.9"/>
	<linearGradient id="SVGID_2_" gradientUnits="userSpaceOnUse" x1="144.7519" y1="13.8551" x2="148.7421" y2="17.8454">
		<stop  offset="0" style="stop-color:#B3B3B3"/>
		<stop  offset="0.2245" style="stop-color:#4F4F4F"/>
		<stop  offset="0.2648" style="stop-color:#404040"/>
		<stop  offset="0.3453" style="stop-color:#292929"/>
		<stop  offset="0.4376" style="stop-color:#161616"/>
		<stop  offset="0.5472" style="stop-color:#0A0A0A"/>
		<stop  offset="0.691" style="stop-color:#020202"/>
		<stop  offset="1" style="stop-color:#000000"/>
	</linearGradient>
	<path fill="url(#SVGID_2_)" d="M160,8.3c-1.1,1.5-3.3,2.1-5.3,2.7c-2,0.6-5.5,1.2-5.5,1.2s0,0,0,0c-0.4,0.5-3.8,4.3-5.3,6
		c-1.6,1.8-5.8,5.8-7,6.9c-1.2,1.1-1.8,1-2.1,1c-0.3,0-0.9-0.2-0.9-0.2l-2,1.9l-0.3-0.3c0,0,1.8-2.1,1.8-2.1c-0.4-0.7,0.4-2,0.4-2
		s3.6-3.8,7.3-7.2c2.7-2.5,5.6-4.7,6.2-5.3c0.1-0.1,0.1-0.1,0.1-0.2c0.2-0.9,0.4-6.5,2.9-9.4c1.4-1.7,2.7-1.5,3.5-1.2
		c0.4,0.2,1,0.9,1.4,1.4c0,0,0,0,0,0c0.3,0.4,0.5,0.7,0.5,0.7s1.6-1.7,2.1-2c0.5-0.3,0.5,0.2,0.5,0.2l-1.1,1.9l0,0l0.6,0.5l-0.8,1.1
		l-0.1,0.1c1.4,0,2.8,0.7,3.5,1.3S161.2,6.8,160,8.3z"/>
	<linearGradient id="SVGID_3_" gradientUnits="userSpaceOnUse" x1="136.4576" y1="22.8326" x2="137.6731" y2="24.0481">
		<stop  offset="0" style="stop-color:#C49A6C"/>
		<stop  offset="0.1044" style="stop-color:#BB9164"/>
		<stop  offset="0.2743" style="stop-color:#A37950"/>
		<stop  offset="0.4873" style="stop-color:#7C532F"/>
		<stop  offset="0.5204" style="stop-color:#754C29"/>
		<stop  offset="0.6887" style="stop-color:#5B3A20"/>
		<stop  offset="0.8796" style="stop-color:#442A18"/>
		<stop  offset="1" style="stop-color:#3C2415"/>
	</linearGradient>
	<path fill="url(#SVGID_3_)" d="M142.5,19.7c-1.9,2-4.7,4.6-5.6,5.4c0,0-0.1,0.1-0.1,0.1c0,0,0,0,0,0c-1.1,1-1.7,1-2,1
		c-0.1,0-0.2,0-0.4,0c-0.3-0.1-0.5-0.1-0.6-0.1c0,0,0,0,0,0l-2,1.9l-0.3-0.3c0,0,1.8-2.1,1.8-2.1c0,0,0-0.1,0-0.1c0,0,0,0,0,0
		c-0.1-0.2-0.1-0.4,0-0.5c0.1-0.6,0.5-1.3,0.5-1.3s0.1-0.1,0.3-0.3c0.9-0.9,3.5-3.6,6.2-6.1C140.5,18.2,141.4,19.3,142.5,19.7z"/>
	<linearGradient id="SVGID_4_" gradientUnits="userSpaceOnUse" x1="149.9677" y1="4.9499" x2="151.8539" y2="6.836">
		<stop  offset="0" style="stop-color:#B3B3B3"/>
		<stop  offset="1" style="stop-color:#4F4F4F"/>
	</linearGradient>
	<path fill="url(#SVGID_4_)" d="M155.9,3l-0.1,0.7l-8.3,7.4l-0.2-0.2c0.1-0.1,0.1-0.1,0.1-0.2c0.2-0.9,0.4-6.5,2.9-9.4
		c1.4-1.7,2.7-1.5,3.5-1.2c0.4,0.2,1,0.9,1.4,1.4L155.9,3z"/>
	<linearGradient id="SVGID_5_" gradientUnits="userSpaceOnUse" x1="154.9672" y1="9.0651" x2="156.7385" y2="10.8363">
		<stop  offset="0" style="stop-color:#414042"/>
		<stop  offset="0.1655" style="stop-color:#464547"/>
		<stop  offset="0.3601" style="stop-color:#545355"/>
		<stop  offset="0.5692" style="stop-color:#6B6B6C"/>
		<stop  offset="0.7871" style="stop-color:#8C8C8C"/>
		<stop  offset="1" style="stop-color:#B3B3B3"/>
	</linearGradient>
	<path fill="url(#SVGID_5_)" d="M160,8.3c-1.1,1.5-3.3,2.1-5.3,2.7c-2,0.6-5.5,1.2-5.5,1.2s0,0,0,0l-0.1-0.3c0,0,3.5-2.4,3.9-2.8
		c0.4-0.4,2.3-1.9,2.8-2.6c0.8-1,0.8-2.2,0.8-2.2l0.1,0l0.1,0c1.4,0,2.8,0.7,3.5,1.3S161.2,6.8,160,8.3z"/>
	<linearGradient id="SVGID_6_" gradientUnits="userSpaceOnUse" x1="132.5553" y1="26.599" x2="132.861" y2="26.9047">
		<stop  offset="0" style="stop-color:#C49A6C"/>
		<stop  offset="0.1044" style="stop-color:#BB9164"/>
		<stop  offset="0.2743" style="stop-color:#A37950"/>
		<stop  offset="0.4873" style="stop-color:#7C532F"/>
		<stop  offset="0.5204" style="stop-color:#754C29"/>
		<stop  offset="0.6887" style="stop-color:#5B3A20"/>
		<stop  offset="0.8796" style="stop-color:#442A18"/>
		<stop  offset="1" style="stop-color:#3C2415"/>
	</linearGradient>
	<path fill="url(#SVGID_6_)" d="M133.9,26C133.9,26,133.9,26,133.9,26l-2.1,1.9l-0.3-0.3c0,0,1.8-2.1,1.8-2.1c0,0,0-0.1,0-0.1
		C133.4,25.6,133.6,25.8,133.9,26z"/>
	<path fill="#58595B" d="M156.3,4.3L148,12c0,0,2.5-0.5,5.1-2.9c2.8-2.4,3.4-3.6,3.4-4.1C156.5,4.7,156.5,4.3,156.3,4.3z"/>
	<path fill="#A7A9AC" d="M156,4l-8.1,8.1c0,0,2.3-0.9,5-3.2c2.8-2.4,3.4-3.6,3.4-4.1C156.3,4.4,156.3,4,156,4z"/>
</g>
<g>
	<path fill="#FF690B" d="M0,15.4v-4.6h14v4.6l-2.9,0.5l6.8,23l0.5,2.1h0.2L19,39l6.8-23.1l-2.9-0.5v-4.6h14v4.6l-3.2,0.4L22.4,49.1
		h-7.9L3.2,15.8L0,15.4z"/>
	<path fill="#FF690B" d="M42.5,20.9c0-3.1,1.3-5.6,4-7.6c2.6-2,5.9-3,9.9-3c3,0,5.6,0.4,8.1,1.3c2.4,0.9,4.5,2.1,6.1,3.6V23h-5.8
		l-1-5.3c-0.7-0.4-1.6-0.8-2.9-1.1c-1.3-0.3-2.6-0.5-4.1-0.5c-2.1,0-3.7,0.4-4.9,1.3c-1.1,0.9-1.7,2-1.7,3.4c0,1.3,0.6,2.4,1.8,3.2
		c1.2,0.8,3.3,1.7,6.2,2.6c4.2,1.2,7.4,2.7,9.6,4.6c2.2,1.9,3.3,4.5,3.3,7.6c0,3.3-1.3,5.9-3.9,7.8c-2.6,1.9-6,2.9-10.3,2.9
		c-3,0-5.8-0.5-8.2-1.5c-2.5-1-4.5-2.3-6.1-4.1v-8h5.8l0.9,5.4c0.8,0.6,1.8,1.2,3.2,1.6c1.3,0.4,2.8,0.6,4.5,0.6
		c2.1,0,3.7-0.4,4.8-1.3c1.1-0.9,1.6-2,1.6-3.4c0-1.5-0.5-2.7-1.6-3.5c-1-0.9-2.9-1.7-5.5-2.5c-4.6-1.3-8-2.9-10.4-4.7
		S42.5,24,42.5,20.9z"/>
	<path fill="#FF690B" d="M76.4,49.1v-4.6l4.1-0.8V16.2l-4.1-0.8v-4.6h4.1h26.2v10.5h-5.9l-0.3-4.6H88.1v9.7h13v5.9h-13v10.9h12.4
		l0.3-4.6h5.9v10.5H76.4z"/>
</g>
<g>
	<path fill="#FF690B" d="M162.1,49.1v-4.6l4.1-0.8V16.2l-4.1-0.8v-4.6h4.1h14.2c4.4,0,7.9,1.1,10.4,3.4c2.5,2.3,3.8,5.2,3.8,8.9
		c0,3.7-1.3,6.6-3.8,8.9c-2.5,2.2-6,3.3-10.4,3.3h-6.5v8.5l4.1,0.8v4.6H162.1z M173.8,29.3h6.5c2.1,0,3.8-0.6,4.9-1.8
		c1.1-1.2,1.6-2.7,1.6-4.5c0-1.8-0.5-3.4-1.6-4.6c-1.1-1.2-2.7-1.8-4.9-1.8h-6.5V29.3z"/>
	<path fill="#FF690B" d="M199.2,49.1v-4.6l4.1-0.8V16.2l-4.1-0.8v-4.6h4.1h13.2c4.4,0,7.8,1,10.3,3c2.5,2,3.7,4.8,3.7,8.3
		c0,1.9-0.5,3.6-1.6,5c-1,1.4-2.6,2.6-4.6,3.5c2.3,0.7,3.9,1.8,4.9,3.3s1.5,3.5,1.5,5.8v1.9c0,0.8,0.2,1.5,0.5,2
		c0.3,0.5,0.9,0.7,1.7,0.8l0.9,0.1v4.7h-4c-2.5,0-4.3-0.7-5.3-2c-1-1.4-1.5-3.1-1.5-5.3v-2.2c0-1.9-0.5-3.3-1.5-4.4
		c-1-1.1-2.4-1.6-4.2-1.7h-6.3v10.1l4.1,0.8v4.6H199.2z M210.9,27.7h5.3c2.1,0,3.8-0.5,4.8-1.4c1.1-0.9,1.6-2.2,1.6-4
		s-0.5-3.1-1.6-4.1c-1.1-1-2.6-1.5-4.7-1.5h-5.5V27.7z"/>
	<path fill="#FF690B" d="M238.7,30.2v-0.6c0-5.6,1.6-10.2,4.8-13.9s7.4-5.5,12.6-5.5c5.2,0,9.4,1.8,12.7,5.5s4.8,8.3,4.8,13.9v0.6
		c0,5.6-1.6,10.3-4.8,13.9c-3.2,3.7-7.4,5.5-12.6,5.5c-5.2,0-9.4-1.8-12.6-5.5C240.3,40.5,238.7,35.9,238.7,30.2z M246.4,30.2
		c0,4.1,0.8,7.3,2.4,9.8c1.6,2.5,4,3.7,7.2,3.7c3.3,0,5.7-1.2,7.3-3.7c1.6-2.5,2.5-5.8,2.5-9.8v-0.6c0-4-0.8-7.2-2.5-9.7
		c-1.7-2.5-4.1-3.7-7.3-3.7s-5.6,1.2-7.2,3.7c-1.6,2.5-2.4,5.7-2.4,9.8V30.2z"/>
	<path fill="#FF690B" d="M277.5,49.1v-6.8h7.7v6.8H277.5z"/>
	<path fill="#FF690B" d="M291.5,49.1v-4.6l4.1-0.8V16.2l-4.1-0.8v-4.6h4.1h13.2c4.4,0,7.8,1,10.3,3c2.5,2,3.7,4.8,3.7,8.3
		c0,1.9-0.5,3.6-1.6,5s-2.6,2.6-4.6,3.5c2.3,0.7,3.9,1.8,4.9,3.3s1.5,3.5,1.5,5.8v1.9c0,0.8,0.2,1.5,0.5,2s0.9,0.7,1.7,0.8l0.9,0.1
		v4.7h-4c-2.5,0-4.3-0.7-5.3-2c-1-1.4-1.5-3.1-1.5-5.3v-2.2c0-1.9-0.5-3.3-1.5-4.4c-1-1.1-2.4-1.6-4.2-1.7h-6.3v10.1l4.1,0.8v4.6
		H291.5z M303.3,27.7h5.3c2.1,0,3.8-0.5,4.8-1.4s1.6-2.2,1.6-4s-0.5-3.1-1.6-4.1c-1.1-1-2.6-1.5-4.7-1.5h-5.5V27.7z"/>
	<path fill="#FF690B" d="M330.3,15.4v-4.6h4.1h7.7h4.1v4.6l-4.1,0.8v20c0,2.5,0.7,4.4,2,5.7s3.2,1.9,5.6,1.9c2.4,0,4.3-0.6,5.7-1.9
		s2.1-3.1,2.1-5.7v-20l-4.1-0.8v-4.6h15.9v4.6l-4.1,0.8v20c0,4.3-1.4,7.6-4.3,10s-6.6,3.5-11.2,3.5c-4.6,0-8.3-1.2-11.1-3.5
		c-2.8-2.3-4.2-5.7-4.2-10v-20L330.3,15.4z"/>
</g>
<g>
	<path fill="#FFFFFF" d="M9.3,73.3c0,0.1-0.1,0.2-0.2,0.4l-4.2,4.3C4.8,78,4.6,78,4.5,78c-0.1,0-0.3,0-0.4-0.1
		C4.1,77.8,4,77.7,4,77.5v-2.3H0.5c-0.1,0-0.3-0.1-0.4-0.2S0,74.9,0,74.8v-3c0-0.1,0.1-0.3,0.2-0.3c0.1-0.1,0.2-0.1,0.4-0.2H4V69
		c0-0.1,0-0.2,0.1-0.3s0.2-0.1,0.4-0.1c0.1,0,0.3,0.1,0.4,0.1l4.2,4.3C9.2,73,9.3,73.1,9.3,73.3z M12,70.5V76c0,0.6-0.2,1.2-0.7,1.6
		c-0.4,0.4-1,0.7-1.6,0.7H7.3c-0.1,0-0.1,0-0.2-0.1C7,78.2,7,78.1,7,78l0-0.2c0-0.1,0-0.2,0-0.2l0-0.2c0-0.1,0-0.1,0.1-0.2
		c0,0,0.1-0.1,0.2,0h2.5c0.3,0,0.6-0.1,0.9-0.4S11,76.4,11,76v-5.5c0-0.3-0.1-0.6-0.4-0.9c-0.3-0.2-0.5-0.4-0.9-0.4H7.2
		c-0.1,0-0.1,0-0.1,0s0,0-0.1,0c0,0-0.1,0-0.1-0.1c0,0,0-0.1,0-0.1l0-0.2c0-0.1,0-0.2,0-0.2l0-0.2c0-0.1,0-0.1,0.1-0.2
		c0,0,0.1-0.1,0.2,0h2.5c0.6,0,1.2,0.2,1.6,0.7C11.8,69.4,12,69.9,12,70.5z"/>
</g>
<g>
	<path fill="#FFFFFF" d="M18.6,66.8c0,0.4-0.1,0.7-0.4,1c-0.3,0.3-0.6,0.4-1,0.4c-0.4,0-0.7-0.1-1-0.4L12.3,64
		c-1.3,0.9-2.8,1.4-4.5,1.4c-1.1,0-2.1-0.2-3.1-0.6c-1-0.4-1.8-1-2.5-1.7c-0.7-0.7-1.3-1.5-1.7-2.5c-0.4-1-0.6-2-0.6-3.1
		c0-1.1,0.2-2.1,0.6-3c0.4-0.9,1-1.8,1.7-2.5c0.7-0.7,1.6-1.3,2.5-1.7s2-0.6,3.1-0.6c1.1,0,2.1,0.2,3,0.6c0.9,0.4,1.8,1,2.5,1.7
		c0.7,0.7,1.3,1.5,1.7,2.5c0.4,1,0.6,2,0.6,3c0,1.6-0.5,3.1-1.4,4.5l3.8,3.8C18.5,66.1,18.6,66.4,18.6,66.8z M12.9,57.5
		c0-1.4-0.5-2.5-1.5-3.5c-1-1-2.2-1.5-3.5-1.5c-1.4,0-2.5,0.5-3.5,1.5s-1.5,2.2-1.5,3.5s0.5,2.5,1.5,3.5c0.9,1,2.1,1.5,3.5,1.5
		s2.6-0.5,3.5-1.5S12.8,59,12.9,57.5z"/>
</g>
</svg>
