<?xml version="1.0" standalone="no"?>
<!DOCTYPE svg PUBLIC "-//W3C//DTD SVG 20010904//EN"
 "http://www.w3.org/TR/2001/REC-SVG-20010904/DTD/svg10.dtd">
<svg version="1.0" xmlns="http://www.w3.org/2000/svg"
 width="1756.000000pt" height="1756.000000pt" viewBox="0 0 1756.000000 1756.000000"
 preserveAspectRatio="xMidYMid meet">
<metadata>
Created by potrace 1.11, written by Peter Selinger 2001-2013
</metadata>
<g transform="translate(0.000000,1756.000000) scale(0.100000,-0.100000)"
fill="#000000" stroke="none">
<path d="M14564 17321 c-233 -57 -455 -209 -674 -460 -63 -74 -160 -201 -160
-212 0 -4 -6 -14 -13 -21 -45 -45 -205 -345 -284 -533 -78 -185 -91 -223 -208
-595 -33 -104 -115 -458 -140 -600 -3 -19 -15 -80 -25 -135 -11 -55 -22 -122
-26 -150 -3 -27 -8 -52 -9 -55 -2 -3 -7 -33 -10 -65 -4 -33 -9 -62 -10 -65 -2
-3 -6 -34 -10 -70 -3 -36 -8 -72 -10 -80 -2 -8 -7 -40 -10 -70 -3 -30 -8 -66
-10 -80 -2 -14 -6 -50 -10 -80 -11 -98 -15 -129 -20 -167 -11 -86 -16 -130
-20 -158 -9 -75 -18 -111 -31 -126 -8 -9 -12 -23 -9 -31 6 -16 -24 -49 -155
-168 -46 -41 -88 -79 -94 -85 -22 -20 -214 -183 -341 -290 -71 -61 -141 -119
-155 -131 -21 -18 -136 -115 -205 -172 -79 -66 -287 -242 -321 -271 -22 -20
-51 -45 -65 -56 -35 -29 -219 -185 -254 -216 -117 -104 -301 -259 -307 -259
-3 0 -13 6 -20 13 -27 26 -187 156 -273 222 -49 38 -92 72 -95 75 -13 16 -330
240 -338 240 -6 0 -12 4 -14 9 -2 7 -228 157 -344 228 -352 218 -736 421
-1074 568 -47 20 -98 43 -115 50 -198 90 -755 284 -970 338 -11 3 -72 19 -135
36 -105 28 -346 83 -412 95 -15 2 -63 11 -105 20 -80 16 -97 18 -218 36 -38 6
-81 12 -95 15 -14 2 -49 7 -79 10 -30 4 -62 8 -71 10 -10 2 -54 6 -99 10 -44
3 -89 8 -99 10 -9 1 -64 6 -122 10 -355 24 -822 19 -1070 -10 -19 -2 -62 -7
-95 -10 -129 -13 -430 -61 -560 -89 -11 -3 -54 -12 -95 -21 -121 -26 -323 -82
-490 -137 -619 -203 -1187 -522 -1665 -937 -197 -171 -413 -395 -569 -591 -38
-47 -126 -146 -196 -220 -126 -133 -236 -258 -295 -334 -16 -22 -39 -49 -50
-62 -11 -12 -28 -33 -37 -46 -9 -13 -38 -53 -65 -89 -198 -270 -343 -504 -485
-784 -252 -497 -442 -1065 -532 -1590 -9 -53 -35 -219 -40 -255 -3 -19 -7 -51
-10 -70 -3 -19 -8 -64 -11 -100 -4 -36 -8 -75 -10 -88 -27 -173 -27 -899 0
-1177 14 -143 17 -168 20 -185 2 -10 6 -45 10 -77 8 -80 12 -106 42 -278 28
-165 27 -161 42 -225 10 -44 14 -66 26 -125 59 -295 266 -939 395 -1230 9 -22
41 -94 70 -160 57 -127 226 -470 270 -545 15 -25 51 -88 80 -140 74 -131 212
-354 222 -358 4 -2 8 -8 8 -13 0 -9 63 -104 175 -264 47 -67 254 -345 265
-355 3 -3 44 -52 90 -110 47 -58 98 -120 115 -137 16 -18 35 -38 40 -46 65
-85 527 -558 680 -697 117 -107 343 -299 425 -363 9 -7 38 -30 65 -52 67 -54
251 -191 330 -245 36 -25 71 -50 78 -56 24 -21 253 -171 392 -256 134 -82 225
-135 365 -213 131 -73 480 -243 650 -317 171 -75 214 -92 390 -158 47 -18 94
-36 105 -40 243 -97 868 -266 1180 -320 33 -5 71 -12 85 -15 48 -10 77 -15
116 -20 21 -2 50 -7 64 -10 14 -2 45 -7 70 -9 42 -5 81 -10 155 -21 17 -2 59
-7 95 -10 36 -3 88 -8 115 -10 297 -27 978 -28 1200 -1 17 2 62 7 100 11 39 3
81 8 95 10 14 2 45 6 70 9 167 22 382 59 550 97 388 88 775 216 1130 374 137
61 380 184 403 203 9 8 17 12 17 9 0 -3 36 16 81 43 44 28 82 50 84 50 19 0
487 321 552 378 10 9 39 33 63 51 187 145 539 485 709 686 51 61 102 121 114
135 66 78 220 290 314 432 59 90 148 217 198 283 371 489 642 1047 806 1663
35 131 30 108 68 292 33 161 33 166 61 370 34 253 44 422 44 725 0 211 -9 474
-18 535 -3 14 -7 57 -10 95 -4 39 -8 81 -10 95 -3 14 -7 52 -11 85 -3 33 -8
67 -10 75 -2 8 -6 35 -9 60 -3 25 -8 56 -11 70 -2 13 -7 42 -11 64 -3 22 -7
43 -9 46 -1 3 -6 26 -9 52 -4 26 -18 98 -32 160 -14 62 -28 124 -30 138 -3 14
-19 77 -35 140 -171 652 -393 1203 -734 1825 -174 318 -508 820 -722 1085 -6
8 -53 67 -104 130 -51 63 -150 181 -221 262 -70 80 -128 150 -128 155 0 4 17
26 38 48 20 22 71 78 112 125 41 47 93 105 116 130 35 39 224 252 438 494 33
39 68 77 76 86 8 9 46 52 85 96 38 43 76 86 85 95 8 9 42 47 75 84 33 38 100
114 149 170 49 55 115 129 146 165 32 36 124 142 206 235 82 94 156 179 166
190 9 11 23 28 31 38 12 17 103 39 257 63 19 3 42 7 50 9 8 2 31 7 50 10 184
31 773 156 1085 230 292 69 605 169 1130 360 493 179 800 350 1015 565 65 64
187 211 266 320 218 298 239 547 61 731 -170 177 -701 420 -1024 469 -43 7
-86 14 -96 16 -10 1 -47 4 -82 5 -36 1 -65 5 -65 8 0 3 21 29 46 56 152 167
204 224 235 260 19 22 42 46 51 53 10 7 23 22 29 33 11 22 11 22 -73 91 -23
18 -60 49 -83 68 l-41 36 44 74 c24 41 55 94 68 117 13 23 80 139 149 258 69
118 125 224 125 235 0 29 -26 76 -45 84 -79 30 -192 -47 -524 -359 -55 -52
-306 -293 -345 -332 -2 -2 -42 50 -89 116 -107 148 -177 231 -287 342 -170
172 -293 254 -447 301 -96 29 -319 34 -419 9z"/>
</g>
</svg>
