<?xml version="1.0" encoding="utf-8"?>
<!-- Generator: Adobe Illustrator 19.1.0, SVG Export Plug-In . SVG Version: 6.00 Build 0)  -->
<svg version="1.1" id="Слой_1" xmlns="http://www.w3.org/2000/svg" xmlns:xlink="http://www.w3.org/1999/xlink" x="0px" y="0px"
	 viewBox="-261 375 88 44" style="enable-background:new -261 375 88 44;" xml:space="preserve">
<style type="text/css">
	.st0{fill:#FFFFFF;}
</style>
<g>
	<path class="st0" d="M-227.1,396.6c0,0.3-0.1,0.6-0.3,0.9c-1.3,2.1-3,3.8-5.1,5c-2.1,1.2-4.4,1.9-6.8,1.9c-2.4,0-4.6-0.6-6.8-1.9
		c-2.1-1.2-3.8-2.9-5.1-5c-0.2-0.3-0.3-0.6-0.3-0.9s0.1-0.6,0.3-0.9c1.3-2.1,3-3.7,5.1-5c2.1-1.2,4.4-1.9,6.8-1.9
		c2.4,0,4.6,0.6,6.8,1.9c2.1,1.3,3.8,2.9,5.1,5C-227.2,396-227.1,396.3-227.1,396.6z M-228.8,396.6c-1.4-2.1-3.1-3.7-5.2-4.8
		c0.5,0.9,0.8,1.9,0.8,3c0,1.7-0.6,3.1-1.8,4.3c-1.2,1.2-2.6,1.8-4.3,1.8s-3.1-0.6-4.3-1.8c-1.2-1.2-1.8-2.6-1.8-4.3
		c0-1.1,0.3-2.1,0.8-3c-2.1,1.1-3.8,2.6-5.2,4.8c1.2,1.8,2.7,3.3,4.5,4.4c1.8,1.1,3.8,1.7,5.9,1.7s4.1-0.5,5.9-1.7
		C-231.6,399.9-230.1,398.5-228.8,396.6z M-238.6,391.4c0-0.2-0.1-0.3-0.2-0.5c-0.1-0.1-0.3-0.2-0.5-0.2c-1.1,0-2.1,0.4-2.9,1.2
		c-0.8,0.8-1.2,1.8-1.2,2.9c0,0.2,0.1,0.3,0.2,0.5s0.3,0.2,0.5,0.2c0.2,0,0.3,0,0.5-0.2c0.1-0.1,0.2-0.3,0.2-0.5
		c0-0.8,0.3-1.4,0.8-2c0.5-0.5,1.2-0.8,2-0.8c0.2,0,0.3-0.1,0.5-0.2C-238.7,391.7-238.6,391.6-238.6,391.4z"/>
</g>
<g>
	<path class="st0" d="M-189,388.8c0,0.1,0,0.1,0,0.1c-1,1.7-2.4,4.3-4.3,7.7c-1.9,3.4-3.3,6-4.3,7.7l-0.7,1.2
		c-0.1,0.1-0.2,0.2-0.4,0.2c-0.1,0-0.7-0.3-1.8-0.9c-0.1-0.1-0.2-0.2-0.2-0.4c0-0.1,0.2-0.5,0.6-1.2c-1.3-0.6-2.5-1.4-3.6-2.3
		s-2-2.1-2.8-3.3c-0.2-0.3-0.3-0.6-0.3-0.9c0-0.3,0.1-0.7,0.3-0.9c1.4-2.1,3.1-3.8,5.1-5c2-1.2,4.3-1.8,6.7-1.8
		c0.8,0,1.6,0.1,2.4,0.2l0.8-1.3c0.1-0.1,0.2-0.2,0.4-0.2c0,0,0.1,0,0.2,0.1c0.1,0,0.3,0.1,0.4,0.2l0.9,0.5c0.2,0.1,0.3,0.2,0.2,0.2
		C-189.1,388.6-189,388.7-189,388.8z M-199.2,401.7l1-1.9c-0.8-0.6-1.4-1.3-1.8-2.1c-0.5-0.9-0.7-1.8-0.7-2.8c0-1.1,0.3-2.1,0.8-3
		c-2.1,1.1-3.8,2.6-5.2,4.8C-203.5,399-201.5,400.7-199.2,401.7z M-193.9,391.4c0-0.2-0.1-0.3-0.2-0.5c-0.1-0.1-0.3-0.2-0.5-0.2
		c-1.1,0-2.1,0.4-2.9,1.2c-0.8,0.8-1.2,1.8-1.2,2.9c0,0.2,0.1,0.3,0.2,0.5c0.1,0.1,0.3,0.2,0.5,0.2c0.2,0,0.3,0,0.5-0.2
		c0.1-0.1,0.2-0.3,0.2-0.5c0-0.8,0.3-1.4,0.8-2c0.5-0.5,1.2-0.8,2-0.8c0.2,0,0.3-0.1,0.5-0.2C-194,391.7-193.9,391.6-193.9,391.4z
		 M-182.4,396.6c0,0.3-0.1,0.6-0.3,0.9c-0.4,0.6-0.8,1.2-1.5,2c-1.4,1.6-2.9,2.8-4.7,3.6c-1.8,0.9-3.7,1.3-5.7,1.3l1-1.8
		c1.9-0.2,3.7-0.8,5.3-1.8c1.6-1.1,3-2.5,4.1-4.1c-1.1-1.6-2.3-2.9-3.8-4l0.8-1.5c0.9,0.6,1.7,1.3,2.5,2.1c0.8,0.8,1.4,1.6,2,2.5
		C-182.5,396-182.4,396.3-182.4,396.6z M-188.5,394.9c0,1.3-0.4,2.4-1.1,3.4c-0.7,1-1.7,1.8-2.8,2.2l3.8-6.8
		C-188.5,394.2-188.5,394.5-188.5,394.9z"/>
</g>
</svg>
