<?xml version="1.0" encoding="utf-8"?>
<!-- Generator: Adobe Illustrator 17.1.0, SVG Export Plug-In . SVG Version: 6.00 Build 0)  -->
<!DOCTYPE svg PUBLIC "-//W3C//DTD SVG 1.1//EN" "http://www.w3.org/Graphics/SVG/1.1/DTD/svg11.dtd">
<svg version="1.1" id="Слой_1" xmlns="http://www.w3.org/2000/svg" xmlns:xlink="http://www.w3.org/1999/xlink" x="0px" y="0px"
	 viewBox="0 0 360 50" enable-background="new 0 0 360 50" xml:space="preserve">
<g>
	<g>
		
			<linearGradient id="SVGID_1_" gradientUnits="userSpaceOnUse" x1="106.5093" y1="31.6486" x2="144.8377" y2="31.6486" gradientTransform="matrix(1.0169 -4.233117e-002 -4.233117e-002 1.0283 7.417289e-002 2.9952)">
			<stop  offset="0" style="stop-color:#EF9B8D"/>
			<stop  offset="0.2245" style="stop-color:#EF4628"/>
			<stop  offset="0.3675" style="stop-color:#CD3C22"/>
			<stop  offset="0.5561" style="stop-color:#A7311C"/>
			<stop  offset="0.7307" style="stop-color:#8C2917"/>
			<stop  offset="0.8841" style="stop-color:#7B2414"/>
			<stop  offset="1" style="stop-color:#752213"/>
		</linearGradient>
		<path fill="url(#SVGID_1_)" d="M138.2,16.9c8.5,7.5,10.2,19.4,3.8,26.8s-18.5,7.3-27.1-0.2s-10.2-19.4-3.8-26.8
			C117.5,9.4,129.7,9.5,138.2,16.9z"/>
		
			<ellipse transform="matrix(0.6583 -0.7528 0.7528 0.6583 22.1773 106.0574)" fill="#EF4628" cx="127.9" cy="28.6" rx="16.2" ry="20.4"/>
		
			<ellipse transform="matrix(0.6583 -0.7528 0.7528 0.6583 22.1773 106.0574)" fill="#FFFFFF" cx="127.9" cy="28.6" rx="11.3" ry="14.4"/>
		
			<ellipse transform="matrix(0.6583 -0.7528 0.7528 0.6583 22.1773 106.0574)" fill="#EF4628" cx="127.9" cy="28.6" rx="4.5" ry="5.7"/>
	</g>
	
		<ellipse transform="matrix(0.8002 -0.5998 0.5998 0.8002 8.7626 82.9174)" opacity="0.7" fill="#231F20" cx="128.8" cy="28.3" rx="0.4" ry="0.9"/>
	<linearGradient id="SVGID_2_" gradientUnits="userSpaceOnUse" x1="141.1261" y1="14.2798" x2="145.0164" y2="18.17">
		<stop  offset="0" style="stop-color:#B3B3B3"/>
		<stop  offset="0.2245" style="stop-color:#4F4F4F"/>
		<stop  offset="0.2648" style="stop-color:#404040"/>
		<stop  offset="0.3453" style="stop-color:#292929"/>
		<stop  offset="0.4376" style="stop-color:#161616"/>
		<stop  offset="0.5472" style="stop-color:#0A0A0A"/>
		<stop  offset="0.691" style="stop-color:#020202"/>
		<stop  offset="1" style="stop-color:#000000"/>
	</linearGradient>
	<path fill="url(#SVGID_2_)" d="M156,8.8c-1.1,1.5-3.2,2-5.1,2.7c-1.9,0.6-5.4,1.2-5.4,1.2s0,0,0,0c-0.4,0.5-3.7,4.2-5.2,5.9
		c-1.6,1.8-5.7,5.7-6.8,6.7c-1.2,1-1.8,1-2,1s-0.9-0.2-0.9-0.2l-2,1.8l-0.3-0.3c0,0,1.8-2,1.8-2.1c-0.4-0.7,0.4-1.9,0.4-1.9
		s3.6-3.7,7.2-7c2.7-2.4,5.5-4.6,6-5.2c0.1-0.1,0.1-0.1,0.1-0.2c0.2-0.9,0.4-6.3,2.8-9.1c1.4-1.6,2.6-1.5,3.4-1.1
		c0.4,0.2,1,0.8,1.4,1.3c0,0,0,0,0,0c0.3,0.4,0.5,0.7,0.5,0.7s1.6-1.6,2.1-1.9s0.5,0.2,0.5,0.2l-1.1,1.9l0,0l0.6,0.5L153,4.8
		l-0.1,0.1c1.3,0,2.7,0.7,3.4,1.2S157.2,7.4,156,8.8z"/>
	<linearGradient id="SVGID_3_" gradientUnits="userSpaceOnUse" x1="133.0396" y1="23.0324" x2="134.2246" y2="24.2174">
		<stop  offset="0" style="stop-color:#C49A6C"/>
		<stop  offset="0.1044" style="stop-color:#BB9164"/>
		<stop  offset="0.2743" style="stop-color:#A37950"/>
		<stop  offset="0.4873" style="stop-color:#7C532F"/>
		<stop  offset="0.5204" style="stop-color:#754C29"/>
		<stop  offset="0.6887" style="stop-color:#5B3A20"/>
		<stop  offset="0.8796" style="stop-color:#442A18"/>
		<stop  offset="1" style="stop-color:#3C2415"/>
	</linearGradient>
	<path fill="url(#SVGID_3_)" d="M139,20c-1.9,1.9-4.6,4.5-5.5,5.3c0,0-0.1,0.1-0.1,0.1c0,0,0,0,0,0c-1.1,1-1.7,0.9-1.9,0.9
		c-0.1,0-0.2,0-0.4,0c-0.3,0-0.5-0.1-0.6-0.1c0,0,0,0,0,0l-2,1.8l-0.3-0.3c0,0,1.8-2,1.8-2.1c0,0,0-0.1,0-0.1c0,0,0,0,0,0
		c-0.1-0.2-0.1-0.4,0-0.5c0.1-0.6,0.5-1.3,0.5-1.3s0.1-0.1,0.3-0.3c0.9-0.9,3.4-3.5,6.1-6C137,18.5,137.8,19.5,139,20z"/>
	<linearGradient id="SVGID_4_" gradientUnits="userSpaceOnUse" x1="146.2114" y1="5.5975" x2="148.0503" y2="7.4365">
		<stop  offset="0" style="stop-color:#B3B3B3"/>
		<stop  offset="1" style="stop-color:#4F4F4F"/>
	</linearGradient>
	<path fill="url(#SVGID_4_)" d="M152,3.7l-0.1,0.7l-8.1,7.2l-0.2-0.2c0.1-0.1,0.1-0.1,0.1-0.2c0.2-0.9,0.4-6.3,2.8-9.1
		c1.4-1.6,2.6-1.5,3.4-1.1c0.4,0.2,1,0.8,1.4,1.3L152,3.7z"/>
	<linearGradient id="SVGID_5_" gradientUnits="userSpaceOnUse" x1="151.0856" y1="9.6097" x2="152.8125" y2="11.3366">
		<stop  offset="0" style="stop-color:#414042"/>
		<stop  offset="0.1655" style="stop-color:#464547"/>
		<stop  offset="0.3601" style="stop-color:#545355"/>
		<stop  offset="0.5692" style="stop-color:#6B6B6C"/>
		<stop  offset="0.7871" style="stop-color:#8C8C8C"/>
		<stop  offset="1" style="stop-color:#B3B3B3"/>
	</linearGradient>
	<path fill="url(#SVGID_5_)" d="M156,8.8c-1.1,1.5-3.2,2-5.1,2.7c-1.9,0.6-5.4,1.2-5.4,1.2s0,0,0,0l-0.1-0.3c0,0,3.4-2.4,3.8-2.8
		c0.4-0.4,2.2-1.9,2.7-2.5c0.8-1,0.8-2.1,0.8-2.1l0.1,0l0.1,0c1.3,0,2.7,0.7,3.4,1.2S157.2,7.4,156,8.8z"/>
	<linearGradient id="SVGID_6_" gradientUnits="userSpaceOnUse" x1="129.2351" y1="26.7044" x2="129.5331" y2="27.0025">
		<stop  offset="0" style="stop-color:#C49A6C"/>
		<stop  offset="0.1044" style="stop-color:#BB9164"/>
		<stop  offset="0.2743" style="stop-color:#A37950"/>
		<stop  offset="0.4873" style="stop-color:#7C532F"/>
		<stop  offset="0.5204" style="stop-color:#754C29"/>
		<stop  offset="0.6887" style="stop-color:#5B3A20"/>
		<stop  offset="0.8796" style="stop-color:#442A18"/>
		<stop  offset="1" style="stop-color:#3C2415"/>
	</linearGradient>
	<path fill="url(#SVGID_6_)" d="M130.5,26.1C130.5,26.1,130.5,26.1,130.5,26.1l-2,1.8l-0.3-0.3c0,0,1.8-2,1.8-2.1c0,0,0-0.1,0-0.1
		C130.1,25.7,130.3,26,130.5,26.1z"/>
	<path fill="#58595B" d="M152.3,5l-8.1,7.5c0,0,2.4-0.5,5-2.8c2.7-2.4,3.4-3.5,3.4-4C152.6,5.4,152.6,5,152.3,5z"/>
	<path fill="#A7A9AC" d="M152.1,4.7l-7.9,7.9c0,0,2.2-0.8,4.9-3.1c2.7-2.4,3.4-3.5,3.4-4C152.4,5.1,152.4,4.7,152.1,4.7z"/>
</g>
<g>
	<path fill="#FF690B" d="M0,15.8v-4.5h13.7v4.5l-2.9,0.5l6.6,22.4l0.5,2.1h0.2l0.4-2l6.7-22.5l-2.8-0.5v-4.5H36v4.5l-3.1,0.4
		l-11,32.5h-7.7L3.1,16.2L0,15.8z"/>
	<path fill="#FF690B" d="M41.5,21.1c0-3,1.3-5.5,3.9-7.4c2.6-1.9,5.8-2.9,9.7-3c2.9,0,5.5,0.4,7.9,1.3c2.4,0.9,4.3,2,6,3.5v7.6h-5.6
		l-1-5.1c-0.6-0.4-1.6-0.8-2.8-1.1c-1.2-0.3-2.6-0.5-4-0.5c-2.1,0-3.6,0.4-4.8,1.3c-1.1,0.9-1.7,2-1.7,3.3c0,1.3,0.6,2.3,1.8,3.1
		c1.2,0.8,3.2,1.7,6.1,2.6c4.1,1.1,7.2,2.7,9.4,4.5c2.1,1.9,3.2,4.3,3.2,7.4c0,3.2-1.3,5.8-3.8,7.6c-2.5,1.9-5.9,2.8-10,2.8
		c-3,0-5.6-0.5-8-1.4c-2.4-1-4.4-2.3-6-4V36h5.7l0.9,5.3c0.8,0.6,1.8,1.1,3.1,1.5c1.3,0.4,2.8,0.6,4.4,0.6c2.1,0,3.6-0.4,4.7-1.3
		c1.1-0.8,1.6-2,1.6-3.4c0-1.4-0.5-2.6-1.5-3.5c-1-0.9-2.8-1.7-5.3-2.5c-4.5-1.3-7.8-2.8-10.1-4.6C42.6,26.6,41.5,24.2,41.5,21.1z"
		/>
	<path fill="#FF690B" d="M74.4,48.7v-4.5l4-0.8V16.6l-4-0.8v-4.5h4H104v10.3h-5.8L97.9,17h-12v9.4h12.7v5.8H85.9v10.7H98l0.3-4.4
		h5.7v10.2H74.4z"/>
</g>
<g>
	<path fill="#FF690B" d="M158,48.7v-4.5l4-0.8V16.6l-4-0.8v-4.5h4h13.8c4.3,0,7.7,1.1,10.1,3.3c2.5,2.2,3.7,5.1,3.7,8.6
		c0,3.6-1.2,6.5-3.7,8.6c-2.5,2.2-5.9,3.3-10.1,3.3h-6.3v8.3l4,0.8v4.5H158z M169.5,29.3h6.3c2.1,0,3.7-0.6,4.7-1.7
		c1.1-1.1,1.6-2.6,1.6-4.4c0-1.8-0.5-3.3-1.6-4.5c-1.1-1.2-2.7-1.8-4.7-1.8h-6.3V29.3z"/>
	<path fill="#FF690B" d="M194.2,48.7v-4.5l4-0.8V16.6l-4-0.8v-4.5h4H211c4.3,0,7.6,1,10,2.9c2.4,1.9,3.6,4.6,3.6,8.1
		c0,1.9-0.5,3.5-1.5,4.9c-1,1.4-2.5,2.5-4.4,3.4c2.2,0.7,3.8,1.7,4.8,3.2c1,1.5,1.5,3.4,1.5,5.6v1.9c0,0.8,0.2,1.5,0.5,1.9
		c0.3,0.5,0.9,0.7,1.6,0.8l0.9,0.1v4.6H224c-2.5,0-4.2-0.7-5.2-2c-1-1.3-1.5-3-1.5-5.1v-2.1c0-1.8-0.5-3.2-1.5-4.3
		c-1-1-2.3-1.6-4.1-1.6h-6.1v9.8l4,0.8v4.5H194.2z M205.7,27.8h5.2c2.1,0,3.7-0.4,4.7-1.3c1-0.9,1.6-2.2,1.6-3.9s-0.5-3-1.6-4
		c-1-1-2.6-1.5-4.6-1.5h-5.3V27.8z"/>
	<path fill="#FF690B" d="M232.7,30.3v-0.6c0-5.4,1.6-10,4.7-13.6s7.2-5.4,12.2-5.4c5.1,0,9.2,1.8,12.3,5.4c3.1,3.6,4.7,8.1,4.7,13.6
		v0.6c0,5.5-1.6,10-4.7,13.6c-3.1,3.6-7.3,5.4-12.3,5.4c-5.1,0-9.1-1.8-12.2-5.4C234.3,40.3,232.7,35.7,232.7,30.3z M240.3,30.2
		c0,4,0.8,7.2,2.4,9.6c1.6,2.4,3.9,3.6,7.1,3.6c3.2,0,5.6-1.2,7.1-3.6c1.6-2.4,2.4-5.6,2.4-9.6v-0.6c0-3.9-0.8-7.1-2.4-9.5
		c-1.6-2.4-4-3.6-7.1-3.6c-3.2,0-5.5,1.2-7.1,3.6c-1.6,2.4-2.3,5.6-2.3,9.5V30.2z"/>
	<path fill="#FF690B" d="M270.5,48.7v-6.6h7.5v6.6H270.5z"/>
	<path fill="#FF690B" d="M284.2,48.7v-4.5l4-0.8V16.6l-4-0.8v-4.5h4H301c4.3,0,7.6,1,10,2.9c2.4,1.9,3.6,4.6,3.6,8.1
		c0,1.9-0.5,3.5-1.5,4.9c-1,1.4-2.5,2.5-4.4,3.4c2.2,0.7,3.8,1.7,4.8,3.2c1,1.5,1.5,3.4,1.5,5.6v1.9c0,0.8,0.2,1.5,0.5,1.9
		s0.9,0.7,1.6,0.8l0.9,0.1v4.6H314c-2.5,0-4.2-0.7-5.2-2c-1-1.3-1.5-3-1.5-5.1v-2.1c0-1.8-0.5-3.2-1.5-4.3c-1-1-2.3-1.6-4.1-1.6
		h-6.1v9.8l4,0.8v4.5H284.2z M295.7,27.8h5.2c2.1,0,3.7-0.4,4.7-1.3c1-0.9,1.6-2.2,1.6-3.9s-0.5-3-1.6-4c-1-1-2.6-1.5-4.6-1.5h-5.3
		V27.8z"/>
	<path fill="#FF690B" d="M322,15.8v-4.5h4h7.5h4v4.5l-4,0.8v19.5c0,2.5,0.7,4.3,2,5.5c1.3,1.2,3.1,1.8,5.5,1.8
		c2.3,0,4.2-0.6,5.5-1.8c1.3-1.2,2-3.1,2-5.5V16.6l-4-0.8v-4.5H360v4.5l-4,0.8v19.5c0,4.2-1.4,7.4-4.2,9.7
		c-2.8,2.3-6.4,3.4-10.9,3.4c-4.5,0-8.1-1.1-10.8-3.4c-2.8-2.3-4.1-5.5-4.1-9.7V16.6L322,15.8z"/>
</g>
</svg>
