<?xml version="1.0" encoding="utf-8"?><!DOCTYPE svg PUBLIC "-//W3C//DTD SVG 1.1//EN" "http://www.w3.org/Graphics/SVG/1.1/DTD/svg11.dtd"><svg width="360" height="50" viewBox="0 0 360 50" xmlns="http://www.w3.org/2000/svg" xmlns:xlink="http://www.w3.org/1999/xlink"><svg viewBox="0 0 360 50" width="360" height="50" id="logo"><linearGradient id="aa" gradientUnits="userSpaceOnUse" x1="106.509" y1="31.649" x2="144.838" y2="31.649" gradientTransform="matrix(1.0169 -.04233 -.04233 1.0283 .074 2.995)"><stop offset="0" stop-color="#EF9B8D"/><stop offset=".225" stop-color="#EF4628"/><stop offset=".367" stop-color="#CD3C22"/><stop offset=".556" stop-color="#A7311C"/><stop offset=".731" stop-color="#8C2917"/><stop offset=".884" stop-color="#7B2414"/><stop offset="1" stop-color="#752213"/></linearGradient><path fill="url(#aa)" d="M138.2 16.9c8.5 7.5 10.2 19.4 3.8 26.8s-18.5 7.3-27.1-.2-10.2-19.4-3.8-26.8c6.4-7.3 18.6-7.2 27.1.2z"/><ellipse transform="rotate(-48.83 127.9 28.6)" fill="#EF4628" cx="127.9" cy="28.6" rx="16.2" ry="20.4"/><ellipse transform="rotate(-48.83 127.9 28.6)" fill="#FFF" cx="127.9" cy="28.6" rx="11.3" ry="14.4"/><ellipse transform="rotate(-48.83 127.9 28.6)" fill="#EF4628" cx="127.9" cy="28.6" rx="4.5" ry="5.7"/><ellipse transform="rotate(-36.854 128.81 28.308)" opacity=".7" fill="#231F20" cx="128.8" cy="28.3" rx=".4" ry=".9"/><linearGradient id="ab" gradientUnits="userSpaceOnUse" x1="141.126" y1="14.28" x2="145.016" y2="18.17"><stop offset="0" stop-color="#B3B3B3"/><stop offset=".225" stop-color="#4F4F4F"/><stop offset=".265" stop-color="#404040"/><stop offset=".345" stop-color="#292929"/><stop offset=".438" stop-color="#161616"/><stop offset=".547" stop-color="#0A0A0A"/><stop offset=".691" stop-color="#020202"/><stop offset="1"/></linearGradient><path fill="url(#ab)" d="M156 8.8c-1.1 1.5-3.2 2-5.1 2.7-1.9.6-5.4 1.2-5.4 1.2-.4.5-3.7 4.2-5.2 5.9-1.6 1.8-5.7 5.7-6.8 6.7-1.2 1-1.8 1-2 1s-.9-.2-.9-.2l-2 1.8-.3-.3s1.8-2 1.8-2.1c-.4-.7.4-1.9.4-1.9s3.6-3.7 7.2-7c2.7-2.4 5.5-4.6 6-5.2.1-.1.1-.1.1-.2.2-.9.4-6.3 2.8-9.1C148 .5 149.2.6 150 1c.4.2 1 .8 1.4 1.3.3.4.5.7.5.7s1.6-1.6 2.1-1.9.5.2.5.2l-1.1 1.9.6.5-1 1.1-.1.1c1.3 0 2.7.7 3.4 1.2s.9 1.3-.3 2.7z"/><linearGradient id="ac" gradientUnits="userSpaceOnUse" x1="133.04" y1="23.032" x2="134.225" y2="24.217"><stop offset="0" stop-color="#C49A6C"/><stop offset=".104" stop-color="#BB9164"/><stop offset=".274" stop-color="#A37950"/><stop offset=".487" stop-color="#7C532F"/><stop offset=".52" stop-color="#754C29"/><stop offset=".689" stop-color="#5B3A20"/><stop offset=".88" stop-color="#442A18"/><stop offset="1" stop-color="#3C2415"/></linearGradient><path fill="url(#ac)" d="M139 20c-1.9 1.9-4.6 4.5-5.5 5.3l-.1.1c-1.1 1-1.7.9-1.9.9h-.4c-.3 0-.5-.1-.6-.1l-2 1.8-.3-.3s1.8-2 1.8-2.1v-.1c-.1-.2-.1-.4 0-.5.1-.6.5-1.3.5-1.3l.3-.3c.9-.9 3.4-3.5 6.1-6 .1 1.1.9 2.1 2.1 2.6z"/><linearGradient id="ad" gradientUnits="userSpaceOnUse" x1="146.211" y1="5.598" x2="148.05" y2="7.436"><stop offset="0" stop-color="#B3B3B3"/><stop offset="1" stop-color="#4F4F4F"/></linearGradient><path fill="url(#ad)" d="M152 3.7l-.1.7-8.1 7.2-.2-.2c.1-.1.1-.1.1-.2.2-.9.4-6.3 2.8-9.1 1.4-1.6 2.6-1.5 3.4-1.1.4.2 1 .8 1.4 1.3l.7 1.4z"/><linearGradient id="ae" gradientUnits="userSpaceOnUse" x1="151.086" y1="9.61" x2="152.813" y2="11.337"><stop offset="0" stop-color="#414042"/><stop offset=".166" stop-color="#464547"/><stop offset=".36" stop-color="#545355"/><stop offset=".569" stop-color="#6B6B6C"/><stop offset=".787" stop-color="#8C8C8C"/><stop offset="1" stop-color="#B3B3B3"/></linearGradient><path fill="url(#ae)" d="M156 8.8c-1.1 1.5-3.2 2-5.1 2.7-1.9.6-5.4 1.2-5.4 1.2l-.1-.3s3.4-2.4 3.8-2.8c.4-.4 2.2-1.9 2.7-2.5.8-1 .8-2.1.8-2.1h.2c1.3 0 2.7.7 3.4 1.2s.9 1.2-.3 2.6z"/><linearGradient id="af" gradientUnits="userSpaceOnUse" x1="129.235" y1="26.704" x2="129.533" y2="27.003"><stop offset="0" stop-color="#C49A6C"/><stop offset=".104" stop-color="#BB9164"/><stop offset=".274" stop-color="#A37950"/><stop offset=".487" stop-color="#7C532F"/><stop offset=".52" stop-color="#754C29"/><stop offset=".689" stop-color="#5B3A20"/><stop offset=".88" stop-color="#442A18"/><stop offset="1" stop-color="#3C2415"/></linearGradient><path fill="url(#af)" d="M130.5 26.1l-2 1.8-.3-.3s1.8-2 1.8-2.1v-.1c.1.3.3.6.5.7z"/><path fill="#58595B" d="M152.3 5l-8.1 7.5s2.4-.5 5-2.8c2.7-2.4 3.4-3.5 3.4-4 0-.3 0-.7-.3-.7z"/><path fill="#A7A9AC" d="M152.1 4.7l-7.9 7.9s2.2-.8 4.9-3.1c2.7-2.4 3.4-3.5 3.4-4-.1-.4-.1-.8-.4-.8z"/><g fill="#FF690B"><path d="M0 15.8v-4.5h13.7v4.5l-2.9.5 6.6 22.4.5 2.1h.2l.4-2 6.7-22.5-2.8-.5v-4.5H36v4.5l-3.1.4-11 32.5h-7.7L3.1 16.2 0 15.8zM41.5 21.1c0-3 1.3-5.5 3.9-7.4 2.6-1.9 5.8-2.9 9.7-3 2.9 0 5.5.4 7.9 1.3 2.4.9 4.3 2 6 3.5v7.6h-5.6l-1-5.1c-.6-.4-1.6-.8-2.8-1.1-1.2-.3-2.6-.5-4-.5-2.1 0-3.6.4-4.8 1.3-1.1.9-1.7 2-1.7 3.3 0 1.3.6 2.3 1.8 3.1 1.2.8 3.2 1.7 6.1 2.6 4.1 1.1 7.2 2.7 9.4 4.5 2.1 1.9 3.2 4.3 3.2 7.4 0 3.2-1.3 5.8-3.8 7.6-2.5 1.9-5.9 2.8-10 2.8-3 0-5.6-.5-8-1.4-2.4-1-4.4-2.3-6-4V36h5.7l.9 5.3c.8.6 1.8 1.1 3.1 1.5 1.3.4 2.8.6 4.4.6 2.1 0 3.6-.4 4.7-1.3 1.1-.8 1.6-2 1.6-3.4s-.5-2.6-1.5-3.5c-1-.9-2.8-1.7-5.3-2.5-4.5-1.3-7.8-2.8-10.1-4.6-2.7-1.5-3.8-3.9-3.8-7zM74.4 48.7v-4.5l4-.8V16.6l-4-.8v-4.5H104v10.3h-5.8l-.3-4.6h-12v9.4h12.7v5.8H85.9v10.7H98l.3-4.4h5.7v10.2H74.4z"/></g><g fill="#FF690B"><path d="M158 48.7v-4.5l4-.8V16.6l-4-.8v-4.5h17.8c4.3 0 7.7 1.1 10.1 3.3 2.5 2.2 3.7 5.1 3.7 8.6 0 3.6-1.2 6.5-3.7 8.6-2.5 2.2-5.9 3.3-10.1 3.3h-6.3v8.3l4 .8v4.5H158zm11.5-19.4h6.3c2.1 0 3.7-.6 4.7-1.7 1.1-1.1 1.6-2.6 1.6-4.4 0-1.8-.5-3.3-1.6-4.5-1.1-1.2-2.7-1.8-4.7-1.8h-6.3v12.4zM194.2 48.7v-4.5l4-.8V16.6l-4-.8v-4.5H211c4.3 0 7.6 1 10 2.9 2.4 1.9 3.6 4.6 3.6 8.1 0 1.9-.5 3.5-1.5 4.9-1 1.4-2.5 2.5-4.4 3.4 2.2.7 3.8 1.7 4.8 3.2 1 1.5 1.5 3.4 1.5 5.6v1.9c0 .8.2 1.5.5 1.9.3.5.9.7 1.6.8l.9.1v4.6h-4c-2.5 0-4.2-.7-5.2-2s-1.5-3-1.5-5.1v-2.1c0-1.8-.5-3.2-1.5-4.3-1-1-2.3-1.6-4.1-1.6h-6.1v9.8l4 .8v4.5h-15.4zm11.5-20.9h5.2c2.1 0 3.7-.4 4.7-1.3s1.6-2.2 1.6-3.9-.5-3-1.6-4c-1-1-2.6-1.5-4.6-1.5h-5.3v10.7zM232.7 30.3v-.6c0-5.4 1.6-10 4.7-13.6s7.2-5.4 12.2-5.4c5.1 0 9.2 1.8 12.3 5.4 3.1 3.6 4.7 8.1 4.7 13.6v.6c0 5.5-1.6 10-4.7 13.6-3.1 3.6-7.3 5.4-12.3 5.4-5.1 0-9.1-1.8-12.2-5.4-3.1-3.6-4.7-8.2-4.7-13.6zm7.6-.1c0 4 .8 7.2 2.4 9.6 1.6 2.4 3.9 3.6 7.1 3.6 3.2 0 5.6-1.2 7.1-3.6 1.6-2.4 2.4-5.6 2.4-9.6v-.6c0-3.9-.8-7.1-2.4-9.5-1.6-2.4-4-3.6-7.1-3.6-3.2 0-5.5 1.2-7.1 3.6-1.6 2.4-2.3 5.6-2.3 9.5v.6zM270.5 48.7v-6.6h7.5v6.6h-7.5zM284.2 48.7v-4.5l4-.8V16.6l-4-.8v-4.5H301c4.3 0 7.6 1 10 2.9 2.4 1.9 3.6 4.6 3.6 8.1 0 1.9-.5 3.5-1.5 4.9-1 1.4-2.5 2.5-4.4 3.4 2.2.7 3.8 1.7 4.8 3.2 1 1.5 1.5 3.4 1.5 5.6v1.9c0 .8.2 1.5.5 1.9s.9.7 1.6.8l.9.1v4.6h-4c-2.5 0-4.2-.7-5.2-2s-1.5-3-1.5-5.1v-2.1c0-1.8-.5-3.2-1.5-4.3-1-1-2.3-1.6-4.1-1.6h-6.1v9.8l4 .8v4.5h-15.4zm11.5-20.9h5.2c2.1 0 3.7-.4 4.7-1.3s1.6-2.2 1.6-3.9-.5-3-1.6-4c-1-1-2.6-1.5-4.6-1.5h-5.3v10.7zM322 15.8v-4.5h15.5v4.5l-4 .8v19.5c0 2.5.7 4.3 2 5.5 1.3 1.2 3.1 1.8 5.5 1.8 2.3 0 4.2-.6 5.5-1.8 1.3-1.2 2-3.1 2-5.5V16.6l-4-.8v-4.5H360v4.5l-4 .8v19.5c0 4.2-1.4 7.4-4.2 9.7-2.8 2.3-6.4 3.4-10.9 3.4s-8.1-1.1-10.8-3.4c-2.8-2.3-4.1-5.5-4.1-9.7V16.6l-4-.8z"/></g></svg></svg>