<svg xmlns="http://www.w3.org/2000/svg" xmlns:xlink="http://www.w3.org/1999/xlink" width="380" height="89" viewBox="0 0 380 89"><svg viewBox="-5 -5 379.3 88.3" width="379.3" height="88.3" id="top_logo" x="0" y="0"><linearGradient id="aaa" gradientUnits="userSpaceOnUse" x1="101.143" y1="34.75" x2="140.456" y2="34.75" gradientTransform="matrix(1.0169 -.04233 -.04233 1.0283 8.413 -.415)"><stop offset="0" stop-color="#EF9B8D"/><stop offset=".225" stop-color="#EF4628"/><stop offset=".367" stop-color="#CD3C22"/><stop offset=".556" stop-color="#A7311C"/><stop offset=".731" stop-color="#8C2917"/><stop offset=".884" stop-color="#7B2414"/><stop offset="1" stop-color="#752213"/></linearGradient><path fill="url(#aaa)" d="M141.7 16.6c8.7 7.6 10.5 19.9 3.9 27.5-6.6 7.5-19 7.5-27.8-.2s-10.5-19.9-3.9-27.5c6.7-7.6 19.1-7.5 27.8.2z"/><ellipse transform="rotate(-48.83 131.187 28.544)" fill="#EF4628" cx="131.2" cy="28.5" rx="16.6" ry="21"/><ellipse transform="rotate(-48.83 131.187 28.544)" fill="#FFF" cx="131.2" cy="28.5" rx="11.6" ry="14.8"/><ellipse transform="rotate(-48.83 131.187 28.544)" fill="#EF4628" cx="131.2" cy="28.5" rx="4.6" ry="5.9"/><ellipse transform="rotate(-36.854 132.12 28.243)" opacity=".7" fill="#231F20" cx="132.1" cy="28.2" rx=".4" ry=".9"/><linearGradient id="aab" gradientUnits="userSpaceOnUse" x1="144.752" y1="13.855" x2="148.742" y2="17.845"><stop offset="0" stop-color="#B3B3B3"/><stop offset=".225" stop-color="#4F4F4F"/><stop offset=".265" stop-color="#404040"/><stop offset=".345" stop-color="#292929"/><stop offset=".438" stop-color="#161616"/><stop offset=".547" stop-color="#0A0A0A"/><stop offset=".691" stop-color="#020202"/><stop offset="1"/></linearGradient><path fill="url(#aab)" d="M160 8.3c-1.1 1.5-3.3 2.1-5.3 2.7-2 .6-5.5 1.2-5.5 1.2-.4.5-3.8 4.3-5.3 6-1.6 1.8-5.8 5.8-7 6.9-1.2 1.1-1.8 1-2.1 1-.3 0-.9-.2-.9-.2l-2 1.9-.3-.3 1.8-2.1c-.4-.7.4-2 .4-2s3.6-3.8 7.3-7.2c2.7-2.5 5.6-4.7 6.2-5.3.1-.1.1-.1.1-.2.2-.9.4-6.5 2.9-9.4 1.4-1.7 2.7-1.5 3.5-1.2.4.2 1 .9 1.4 1.4.3.4.5.7.5.7s1.6-1.7 2.1-2c.5-.3.5.2.5.2l-1.1 1.9.6.5-.8 1.1-.1.1c1.4 0 2.8.7 3.5 1.3s.8 1.5-.4 3z"/><linearGradient id="aac" gradientUnits="userSpaceOnUse" x1="136.458" y1="22.833" x2="137.673" y2="24.048"><stop offset="0" stop-color="#C49A6C"/><stop offset=".104" stop-color="#BB9164"/><stop offset=".274" stop-color="#A37950"/><stop offset=".487" stop-color="#7C532F"/><stop offset=".52" stop-color="#754C29"/><stop offset=".689" stop-color="#5B3A20"/><stop offset=".88" stop-color="#442A18"/><stop offset="1" stop-color="#3C2415"/></linearGradient><path fill="url(#aac)" d="M142.5 19.7c-1.9 2-4.7 4.6-5.6 5.4l-.1.1c-1.1 1-1.7 1-2 1h-.4c-.3-.1-.5-.1-.6-.1l-2 1.9-.3-.3 1.8-2.1v-.1c-.1-.2-.1-.4 0-.5.1-.6.5-1.3.5-1.3l.3-.3c.9-.9 3.5-3.6 6.2-6.1.2.9 1.1 2 2.2 2.4z"/><linearGradient id="aad" gradientUnits="userSpaceOnUse" x1="149.968" y1="4.95" x2="151.854" y2="6.836"><stop offset="0" stop-color="#B3B3B3"/><stop offset="1" stop-color="#4F4F4F"/></linearGradient><path fill="url(#aad)" d="M155.9 3l-.1.7-8.3 7.4-.2-.2c.1-.1.1-.1.1-.2.2-.9.4-6.5 2.9-9.4 1.4-1.7 2.7-1.5 3.5-1.2.4.2 1 .9 1.4 1.4l.7 1.5z"/><linearGradient id="aae" gradientUnits="userSpaceOnUse" x1="154.967" y1="9.065" x2="156.738" y2="10.836"><stop offset="0" stop-color="#414042"/><stop offset=".166" stop-color="#464547"/><stop offset=".36" stop-color="#545355"/><stop offset=".569" stop-color="#6B6B6C"/><stop offset=".787" stop-color="#8C8C8C"/><stop offset="1" stop-color="#B3B3B3"/></linearGradient><path fill="url(#aae)" d="M160 8.3c-1.1 1.5-3.3 2.1-5.3 2.7-2 .6-5.5 1.2-5.5 1.2l-.1-.3s3.5-2.4 3.9-2.8c.4-.4 2.3-1.9 2.8-2.6.8-1 .8-2.2.8-2.2h.2c1.4 0 2.8.7 3.5 1.3s.9 1.2-.3 2.7z"/><linearGradient id="aaf" gradientUnits="userSpaceOnUse" x1="132.555" y1="26.599" x2="132.861" y2="26.905"><stop offset="0" stop-color="#C49A6C"/><stop offset=".104" stop-color="#BB9164"/><stop offset=".274" stop-color="#A37950"/><stop offset=".487" stop-color="#7C532F"/><stop offset=".52" stop-color="#754C29"/><stop offset=".689" stop-color="#5B3A20"/><stop offset=".88" stop-color="#442A18"/><stop offset="1" stop-color="#3C2415"/></linearGradient><path fill="url(#aaf)" d="M133.9 26l-2.1 1.9-.3-.3 1.8-2.1v-.1c.1.2.3.4.6.6z"/><path fill="#58595B" d="M156.3 4.3L148 12s2.5-.5 5.1-2.9c2.8-2.4 3.4-3.6 3.4-4.1 0-.3 0-.7-.2-.7z"/><path fill="#A7A9AC" d="M156 4l-8.1 8.1s2.3-.9 5-3.2c2.8-2.4 3.4-3.6 3.4-4.1 0-.4 0-.8-.3-.8z"/><g fill="#FF690B"><path d="M0 15.4v-4.6h14v4.6l-2.9.5 6.8 23 .5 2.1h.2l.4-2 6.8-23.1-2.9-.5v-4.6h14v4.6l-3.2.4-11.3 33.3h-7.9L3.2 15.8 0 15.4zM42.5 20.9c0-3.1 1.3-5.6 4-7.6 2.6-2 5.9-3 9.9-3 3 0 5.6.4 8.1 1.3 2.4.9 4.5 2.1 6.1 3.6V23h-5.8l-1-5.3c-.7-.4-1.6-.8-2.9-1.1-1.3-.3-2.6-.5-4.1-.5-2.1 0-3.7.4-4.9 1.3-1.1.9-1.7 2-1.7 3.4 0 1.3.6 2.4 1.8 3.2 1.2.8 3.3 1.7 6.2 2.6 4.2 1.2 7.4 2.7 9.6 4.6 2.2 1.9 3.3 4.5 3.3 7.6 0 3.3-1.3 5.9-3.9 7.8-2.6 1.9-6 2.9-10.3 2.9-3 0-5.8-.5-8.2-1.5-2.5-1-4.5-2.3-6.1-4.1v-8h5.8l.9 5.4c.8.6 1.8 1.2 3.2 1.6 1.3.4 2.8.6 4.5.6 2.1 0 3.7-.4 4.8-1.3 1.1-.9 1.6-2 1.6-3.4 0-1.5-.5-2.7-1.6-3.5-1-.9-2.9-1.7-5.5-2.5-4.6-1.3-8-2.9-10.4-4.7s-3.4-4.1-3.4-7.2zM76.4 49.1v-4.6l4.1-.8V16.2l-4.1-.8v-4.6H106.7v10.5h-5.9l-.3-4.6H88.1v9.7h13v5.9h-13v10.9h12.4l.3-4.6h5.9v10.5H76.4z"/></g><g fill="#FF690B"><path d="M162.1 49.1v-4.6l4.1-.8V16.2l-4.1-.8v-4.6H180.4c4.4 0 7.9 1.1 10.4 3.4s3.8 5.2 3.8 8.9-1.3 6.6-3.8 8.9c-2.5 2.2-6 3.3-10.4 3.3h-6.5v8.5l4.1.8v4.6h-15.9zm11.7-19.8h6.5c2.1 0 3.8-.6 4.9-1.8 1.1-1.2 1.6-2.7 1.6-4.5 0-1.8-.5-3.4-1.6-4.6-1.1-1.2-2.7-1.8-4.9-1.8h-6.5v12.7zM199.2 49.1v-4.6l4.1-.8V16.2l-4.1-.8v-4.6H216.5c4.4 0 7.8 1 10.3 3 2.5 2 3.7 4.8 3.7 8.3 0 1.9-.5 3.6-1.6 5-1 1.4-2.6 2.6-4.6 3.5 2.3.7 3.9 1.8 4.9 3.3s1.5 3.5 1.5 5.8v1.9c0 .8.2 1.5.5 2s.9.7 1.7.8l.9.1v4.7h-4c-2.5 0-4.3-.7-5.3-2-1-1.4-1.5-3.1-1.5-5.3v-2.2c0-1.9-.5-3.3-1.5-4.4-1-1.1-2.4-1.6-4.2-1.7H211v10.1l4.1.8v4.6h-15.9zm11.7-21.4h5.3c2.1 0 3.8-.5 4.8-1.4 1.1-.9 1.6-2.2 1.6-4s-.5-3.1-1.6-4.1c-1.1-1-2.6-1.5-4.7-1.5h-5.5v11zM238.7 30.2v-.6c0-5.6 1.6-10.2 4.8-13.9s7.4-5.5 12.6-5.5c5.2 0 9.4 1.8 12.7 5.5s4.8 8.3 4.8 13.9v.6c0 5.6-1.6 10.3-4.8 13.9-3.2 3.7-7.4 5.5-12.6 5.5-5.2 0-9.4-1.8-12.6-5.5-3.3-3.6-4.9-8.2-4.9-13.9zm7.7 0c0 4.1.8 7.3 2.4 9.8 1.6 2.5 4 3.7 7.2 3.7 3.3 0 5.7-1.2 7.3-3.7 1.6-2.5 2.5-5.8 2.5-9.8v-.6c0-4-.8-7.2-2.5-9.7-1.7-2.5-4.1-3.7-7.3-3.7s-5.6 1.2-7.2 3.7c-1.6 2.5-2.4 5.7-2.4 9.8v.5zM277.5 49.1v-6.8h7.7v6.8h-7.7zM291.5 49.1v-4.6l4.1-.8V16.2l-4.1-.8v-4.6H308.8c4.4 0 7.8 1 10.3 3 2.5 2 3.7 4.8 3.7 8.3 0 1.9-.5 3.6-1.6 5s-2.6 2.6-4.6 3.5c2.3.7 3.9 1.8 4.9 3.3s1.5 3.5 1.5 5.8v1.9c0 .8.2 1.5.5 2s.9.7 1.7.8l.9.1v4.7h-4c-2.5 0-4.3-.7-5.3-2-1-1.4-1.5-3.1-1.5-5.3v-2.2c0-1.9-.5-3.3-1.5-4.4-1-1.1-2.4-1.6-4.2-1.7h-6.3v10.1l4.1.8v4.6h-15.9zm11.8-21.4h5.3c2.1 0 3.8-.5 4.8-1.4s1.6-2.2 1.6-4-.5-3.1-1.6-4.1c-1.1-1-2.6-1.5-4.7-1.5h-5.5v11zM330.3 15.4v-4.6h15.9v4.6l-4.1.8v20c0 2.5.7 4.4 2 5.7s3.2 1.9 5.6 1.9c2.4 0 4.3-.6 5.7-1.9s2.1-3.1 2.1-5.7v-20l-4.1-.8v-4.6h15.9v4.6l-4.1.8v20c0 4.3-1.4 7.6-4.3 10s-6.6 3.5-11.2 3.5-8.3-1.2-11.1-3.5c-2.8-2.3-4.2-5.7-4.2-10v-20l-4.1-.8z"/></g><g><path fill="#FFF" d="M9.3 73.3c0 .1-.1.2-.2.4L4.9 78h-.4c-.1 0-.3 0-.4-.1 0-.1-.1-.2-.1-.4v-2.3H.5c-.1 0-.3-.1-.4-.2s-.1-.1-.1-.2v-3c0-.1.1-.3.2-.3.1-.1.2-.1.4-.2H4V69c0-.1 0-.2.1-.3s.2-.1.4-.1c.1 0 .3.1.4.1L9.1 73c.1 0 .2.1.2.3zm2.7-2.8V76c0 .6-.2 1.2-.7 1.6-.4.4-1 .7-1.6.7H7.3c-.1 0-.1 0-.2-.1-.1 0-.1-.1-.1-.2v-.2-.4c0-.1 0-.1.1-.2 0 0 .1-.1.2 0h2.5c.3 0 .6-.1.9-.4s.3-.4.3-.8v-5.5c0-.3-.1-.6-.4-.9-.3-.2-.5-.4-.9-.4H7.1 7s-.1 0-.1-.1V68.8v-.4c0-.1 0-.1.1-.2 0 0 .1-.1.2 0h2.5c.6 0 1.2.2 1.6.7.5.5.7 1 .7 1.6z"/></g><g><path fill="#FFF" d="M18.6 66.8c0 .4-.1.7-.4 1-.3.3-.6.4-1 .4s-.7-.1-1-.4L12.3 64c-1.3.9-2.8 1.4-4.5 1.4-1.1 0-2.1-.2-3.1-.6-1-.4-1.8-1-2.5-1.7S.9 61.6.5 60.6c-.4-1-.6-2-.6-3.1s.2-2.1.6-3c.4-.9 1-1.8 1.7-2.5s1.6-1.3 2.5-1.7 2-.6 3.1-.6 2.1.2 3 .6c.9.4 1.8 1 2.5 1.7s1.3 1.5 1.7 2.5c.4 1 .6 2 .6 3 0 1.6-.5 3.1-1.4 4.5l3.8 3.8c.5.3.6.6.6 1zm-5.7-9.3c0-1.4-.5-2.5-1.5-3.5s-2.2-1.5-3.5-1.5c-1.4 0-2.5.5-3.5 1.5s-1.5 2.2-1.5 3.5.5 2.5 1.5 3.5c.9 1 2.1 1.5 3.5 1.5s2.6-.5 3.5-1.5 1.4-2 1.5-3.5z"/></g></svg>
</svg>